<svg version="1.0" xmlns="http://www.w3.org/2000/svg" width="800.000000" height="800.000000" viewBox="0 0 800.000000 800.000000" preserveAspectRatio="xMidYMid meet">
  <metadata>
    <rdf:RDF xmlns:rdf="http://www.w3.org/1999/02/22-rdf-syntax-ns#" xmlns:rdfs="http://www.w3.org/2000/01/rdf-schema#" xmlns:dc="http://purl.org/dc/elements/1.1/">
      <rdf:Description dc:format="image/svg+xml" dc:Label="1" dc:ContentProducer="001191330110MACRLGPT8B00000" dc:ProduceID="449000070" dc:ReservedCode1="dH9cf/RIXzJFNFM4VSbt48M8gw8+yxyw1HVRjhLKaaE=" dc:ContentPropagator="001191330110MACRLGPT8B00000" dc:PropagateID="449000070" dc:ReservedCode2="dH9cf/RIXzJFNFM4VSbt48M8gw8+yxyw1HVRjhLKaaE="/>
    </rdf:RDF>
  </metadata>
  <g transform="translate(0.000000,800.000000) scale(0.100000,-0.100000)" fill="#000000" stroke="none">
    <path d="M2005 6136 c-95 -45 -145 -121 -145 -221 0 -97 47 -171 135 -211 l50 -24 1836 0 1835 0 55 28 c149 75 180 261 64 377 -80 81 77 75 -1964 75 l-1816 0 -50 -24z m3707 -137 c26 -14 51 -74 42 -102 -3 -12 -16 -32 -27 -44 l-20 -23 -1822 0 -1822 0 -27 25 c-39 36 -37 94 5 129 l31 26 1809 0 c1278 0 1816 -3 1831 -11z"/>
    <path d="M2000 4391 l0 -1128 -51 -6 c-29 -4 -60 -14 -70 -23 -25 -23 -24 -75 1 -102 l21 -22 961 0 961 0 -7 -52 c-3 -29 -6 -153 -6 -275 l0 -223 -37 -19 c-115 -59 -164 -200 -109 -316 112 -237 466 -165 466 95 0 33 -6 76 -14 94 -19 46 -79 110 -121 130 l-35 17 0 274 0 275 945 0 946 0 24 25 c51 50 21 113 -58 122 l-47 6 0 111 c0 61 0 569 0 1129 l0 1017 -75 0 -75 0 -2 -1132 -3 -1133 -1700 -3 c-935 -1 -1715 0 -1732 3 l-33 6 0 1129 0 1130 -75 0 -75 0 0 -1129z m1948 -1994 c46 -49 44 -117 -5 -154 -38 -29 -115 -7 -139 38 -21 41 -17 74 12 108 34 40 98 44 132 8z"/>
    <path d="M4303 5510 c-45 -18 -55 -72 -22 -114 20 -25 50 -33 84 -20 22 9 47 61 40 83 -12 40 -64 66 -102 51z"/>
    <path d="M4600 5490 c-27 -27 -25 -66 5 -95 l24 -25 365 0 365 0 20 26 c12 15 21 34 21 44 0 10 -9 29 -21 44 l-20 26 -370 0 c-356 0 -370 -1 -389 -20z"/>
    <path d="M2628 5262 c-84 -84 -98 -103 -98 -131 0 -36 37 -81 68 -81 11 0 36 11 56 25 l36 24 0 -599 0 -600 -134 0 c-139 0 -190 -10 -206 -40 -16 -30 -12 -68 10 -90 18 -18 33 -20 175 -20 l155 0 0 -139 c0 -125 2 -141 21 -165 16 -20 29 -26 59 -26 63 0 70 19 70 187 l0 143 1052 0 1051 0 -21 -22 c-44 -48 -45 -92 -4 -125 36 -29 69 -15 161 67 102 92 129 136 111 181 -7 16 -54 68 -105 114 -79 73 -97 85 -127 85 -65 0 -92 -57 -53 -113 13 -21 23 -37 22 -37 -76 -3 -2024 -5 -2049 -2 l-38 5 0 600 0 600 23 -21 c40 -37 72 -38 108 -3 43 44 35 65 -67 177 -92 99 -99 104 -147 104 -26 0 -47 -16 -129 -98z"/>
    <path d="M3962 4817 c-55 -17 -115 -82 -250 -267 -103 -140 -133 -176 -154 -178 -34 -4 -48 11 -176 198 -133 192 -177 240 -221 240 -39 0 -81 -38 -81 -74 0 -15 16 -44 40 -71 21 -25 70 -89 107 -143 171 -248 227 -302 315 -302 100 0 153 45 310 262 79 109 136 178 153 186 25 12 31 10 57 -15 17 -15 55 -64 86 -108 169 -242 197 -277 256 -307 30 -15 53 -19 98 -16 86 6 123 38 268 231 69 91 143 184 164 206 47 48 52 88 16 126 -31 33 -70 32 -111 -2 -18 -16 -98 -115 -176 -220 -129 -173 -147 -193 -173 -193 -33 0 -44 12 -179 210 -51 74 -109 152 -129 174 -65 68 -139 89 -220 63z"/>
  </g>
</svg>