<svg version="1.0" xmlns="http://www.w3.org/2000/svg" width="800.000000" height="800.000000" viewBox="0 0 800.000000 800.000000" preserveAspectRatio="xMidYMid meet">
  <metadata>
    <rdf:RDF xmlns:rdf="http://www.w3.org/1999/02/22-rdf-syntax-ns#" xmlns:rdfs="http://www.w3.org/2000/01/rdf-schema#" xmlns:dc="http://purl.org/dc/elements/1.1/">
      <rdf:Description dc:format="image/svg+xml" dc:Label="1" dc:ContentProducer="001191330110MACRLGPT8B00000" dc:ProduceID="449000871" dc:ReservedCode1="E2eodycHXmVKD36t6E9ktkRFxyykWfoNNwe9dY+zHYY=" dc:ContentPropagator="001191330110MACRLGPT8B00000" dc:PropagateID="449000871" dc:ReservedCode2="E2eodycHXmVKD36t6E9ktkRFxyykWfoNNwe9dY+zHYY="/>
    </rdf:RDF>
  </metadata>
  <g transform="translate(0.000000,800.000000) scale(0.100000,-0.100000)" fill="#000000" stroke="none">
    <path d="M5209 5972 c-20 -15 -124 -97 -230 -183 -670 -539 -1063 -759 -1581 -885 l-113 -28 -845 -5 -845 -6 -67 -32 c-107 -50 -172 -131 -202 -249 -14 -52 -16 -141 -16 -580 0 -340 4 -533 11 -559 29 -108 98 -199 186 -243 35 -18 115 -39 173 -44 30 -3 28 2 155 -453 150 -537 156 -552 228 -605 89 -65 84 -65 697 -65 l555 0 55 23 c128 55 198 155 210 301 6 79 5 90 -99 599 -17 84 -31 157 -31 163 0 23 288 -75 457 -156 334 -160 577 -331 1223 -859 117 -96 146 -105 194 -61 l26 24 0 1931 c0 1306 -3 1938 -10 1951 -11 20 -60 49 -82 49 -7 -1 -29 -13 -49 -28z m-19 -1967 c0 -949 -2 -1725 -5 -1725 -3 0 -85 64 -183 143 -684 553 -1056 762 -1562 879 -93 21 -115 22 -966 27 l-870 6 -41 27 c-24 16 -49 44 -62 70 -21 43 -21 55 -21 580 l0 535 23 44 c14 27 42 57 71 77 l48 32 765 0 c478 0 800 4 861 11 111 12 349 71 501 124 375 131 762 367 1290 788 74 59 138 107 143 107 4 0 8 -776 8 -1725z m-1866 -1098 c27 -138 57 -288 67 -332 50 -215 30 -308 -76 -356 -37 -17 -77 -19 -563 -19 -464 0 -528 2 -558 16 -61 29 -53 9 -179 459 -48 171 -98 347 -111 391 -13 45 -24 85 -24 88 0 3 314 6 698 6 l697 0 49 -253z"/>
    <path d="M6043 5144 c-38 -38 -27 -78 43 -160 159 -188 272 -425 330 -694 28 -128 26 -410 -5 -540 -62 -264 -174 -498 -321 -670 -78 -92 -86 -125 -38 -170 37 -34 81 -27 128 23 194 208 346 520 401 823 43 241 21 535 -57 774 -67 204 -213 460 -339 595 -35 38 -47 45 -79 45 -26 0 -44 -7 -63 -26z"/>
    <path d="M5745 4798 c-30 -17 -44 -40 -44 -68 0 -29 9 -47 66 -120 59 -78 127 -219 160 -330 25 -86 28 -110 28 -255 0 -148 -2 -167 -28 -250 -47 -147 -125 -289 -209 -381 -47 -51 -61 -85 -47 -121 13 -36 38 -52 78 -53 29 0 43 9 83 51 193 205 310 531 293 812 -11 192 -73 384 -175 552 -92 148 -151 196 -205 163z"/>
  </g>
</svg>