<svg version="1.0" xmlns="http://www.w3.org/2000/svg" width="800.000000" height="800.000000" viewBox="0 0 800.000000 800.000000" preserveAspectRatio="xMidYMid meet">
  <metadata>
    <rdf:RDF xmlns:rdf="http://www.w3.org/1999/02/22-rdf-syntax-ns#" xmlns:rdfs="http://www.w3.org/2000/01/rdf-schema#" xmlns:dc="http://purl.org/dc/elements/1.1/">
      <rdf:Description dc:format="image/svg+xml" dc:Label="1" dc:ContentProducer="001191330110MACRLGPT8B00000" dc:ProduceID="449000069" dc:ReservedCode1="YxMK0GJ+nP9dpCt7L6iGAFWI4Xm4t1pyvGBcLw8khv0=" dc:ContentPropagator="001191330110MACRLGPT8B00000" dc:PropagateID="449000069" dc:ReservedCode2="YxMK0GJ+nP9dpCt7L6iGAFWI4Xm4t1pyvGBcLw8khv0="/>
    </rdf:RDF>
  </metadata>
  <g transform="translate(0.000000,800.000000) scale(0.100000,-0.100000)" fill="#000000" stroke="none">
    <path d="M1919 5898 c-20 -11 -46 -38 -58 -58 l-21 -38 2 -1225 3 -1226 21 -28 c11 -15 36 -38 54 -50 l33 -23 1926 0 c1856 0 1928 1 1961 19 19 10 44 30 55 45 20 27 20 37 20 1269 l0 1242 -24 34 c-47 65 98 61 -2013 61 l-1923 0 -36 -22z m3784 -158 l47 0 0 -1155 0 -1155 -1869 0 -1869 0 -2 1093 c0 602 2 1123 6 1158 l6 64 1817 -3 c999 -1 1837 -2 1864 -2z"/>
    <path d="M3988 5035 c-17 -10 -38 -40 -59 -82 -102 -216 -343 -754 -354 -791 -17 -56 46 -120 105 -107 39 9 52 27 98 131 40 91 267 590 316 694 34 73 33 104 -3 141 -32 32 -62 36 -103 14z"/>
    <path d="M3035 5020 c-36 -15 -393 -383 -400 -413 -18 -70 -4 -90 193 -288 119 -119 197 -190 215 -194 63 -16 117 22 117 82 0 34 -12 48 -162 200 l-162 163 162 164 c155 157 162 166 162 204 0 66 -64 108 -125 82z"/>
    <path d="M4559 5001 c-22 -22 -29 -39 -29 -66 0 -35 11 -49 155 -194 85 -87 155 -160 155 -163 0 -4 -48 -55 -107 -115 -184 -185 -203 -209 -203 -249 0 -50 36 -84 90 -84 40 0 46 5 213 173 94 94 182 185 194 201 27 35 30 93 9 134 -8 15 -97 109 -198 210 -163 161 -188 182 -217 182 -23 0 -41 -9 -62 -29z"/>
    <path d="M3513 3152 l-83 -3 0 -269 0 -270 90 0 90 0 0 269 c0 149 -3 271 -7 273 -5 2 -45 2 -90 0z"/>
    <path d="M4140 2884 l0 -274 85 0 85 0 0 273 0 272 -85 1 -85 2 0 -274z"/>
    <path d="M2799 2531 c-36 -37 -38 -79 -5 -118 l24 -28 1029 -3 c802 -2 1033 0 1051 10 56 30 64 109 15 148 -25 20 -39 20 -1055 20 l-1030 0 -29 -29z"/>
  </g>
</svg>