<svg version="1.0" xmlns="http://www.w3.org/2000/svg" width="800.000000" height="800.000000" viewBox="0 0 800.000000 800.000000" preserveAspectRatio="xMidYMid meet">
  <metadata>
    <rdf:RDF xmlns:rdf="http://www.w3.org/1999/02/22-rdf-syntax-ns#" xmlns:rdfs="http://www.w3.org/2000/01/rdf-schema#" xmlns:dc="http://purl.org/dc/elements/1.1/">
      <rdf:Description dc:format="image/svg+xml" dc:Label="1" dc:ContentProducer="001191330110MACRLGPT8B00000" dc:ProduceID="449000873" dc:ReservedCode1="TaJt/23G7lGN/8DgEpLKn+F2jOHhRGTu/ICer3L0hJU=" dc:ContentPropagator="001191330110MACRLGPT8B00000" dc:PropagateID="449000873" dc:ReservedCode2="TaJt/23G7lGN/8DgEpLKn+F2jOHhRGTu/ICer3L0hJU="/>
    </rdf:RDF>
  </metadata>
  <g transform="translate(0.000000,800.000000) scale(0.100000,-0.100000)" fill="#000000" stroke="none">
    <path d="M3528 6020 c-205 -19 -381 -71 -588 -177 -455 -230 -768 -640 -876 -1143 -48 -225 -41 -550 17 -762 156 -570 565 -1001 1109 -1172 188 -59 309 -77 510 -76 309 0 610 84 860 239 l65 41 30 -33 c17 -19 140 -157 274 -308 607 -683 582 -659 670 -659 72 0 109 25 247 163 118 118 133 137 139 175 9 58 -9 122 -49 165 -17 19 -101 105 -186 193 -137 140 -450 466 -629 653 -33 36 -61 69 -61 74 0 4 13 27 29 50 39 57 132 246 164 332 74 199 101 357 101 590 0 212 -12 289 -71 485 -154 511 -554 921 -1060 1090 -146 48 -233 66 -388 79 -132 12 -179 12 -307 1z m446 -184 c457 -85 875 -409 1071 -830 48 -104 106 -278 126 -381 21 -108 19 -448 -4 -551 -120 -548 -490 -974 -994 -1142 -165 -56 -297 -77 -483 -76 -253 1 -447 47 -671 160 -479 240 -792 724 -825 1275 -16 268 64 589 207 828 81 133 123 187 243 307 215 215 493 360 792 414 135 24 399 22 538 -4z m1061 -2668 c98 -105 524 -546 672 -699 62 -63 113 -120 113 -125 0 -10 -126 -135 -194 -193 l-29 -25 -40 44 c-39 44 -386 437 -438 495 -34 39 -175 196 -277 310 l-81 90 92 93 c50 50 94 92 98 92 3 0 41 -37 84 -82z"/>
    <path d="M3380 5426 c-366 -104 -660 -416 -760 -806 -43 -168 -33 -497 16 -551 38 -42 113 -30 135 23 10 23 9 43 -2 101 -21 106 -16 273 10 381 56 234 212 452 417 586 78 51 201 103 271 115 77 13 109 90 58 140 -28 28 -71 31 -145 11z"/>
  </g>
</svg>