<svg version="1.0" xmlns="http://www.w3.org/2000/svg" width="800.000000" height="800.000000" viewBox="0 0 800.000000 800.000000" preserveAspectRatio="xMidYMid meet">
  <metadata>
    <rdf:RDF xmlns:rdf="http://www.w3.org/1999/02/22-rdf-syntax-ns#" xmlns:rdfs="http://www.w3.org/2000/01/rdf-schema#" xmlns:dc="http://purl.org/dc/elements/1.1/">
      <rdf:Description dc:format="image/svg+xml" dc:Label="1" dc:ContentProducer="001191330110MACRLGPT8B00000" dc:ProduceID="449000866" dc:ReservedCode1="BqqR5iv7KYyXM4icZO2k7mC1rmTDtoh/jWqWn0Ux/pE=" dc:ContentPropagator="001191330110MACRLGPT8B00000" dc:PropagateID="449000866" dc:ReservedCode2="BqqR5iv7KYyXM4icZO2k7mC1rmTDtoh/jWqWn0Ux/pE="/>
    </rdf:RDF>
  </metadata>
  <g transform="translate(0.000000,800.000000) scale(0.100000,-0.100000)" fill="#000000" stroke="none">
    <path d="M2062 5689 c-108 -23 -193 -69 -267 -144 -74 -75 -119 -157 -145 -268 -20 -84 -20 -108 -18 -1434 3 -1344 3 -1348 24 -1393 28 -61 69 -107 115 -130 38 -20 72 -20 1903 -20 1839 0 1866 0 1918 20 73 27 146 85 192 152 38 56 56 110 145 438 39 143 222 799 382 1370 71 255 77 318 39 403 -27 61 -87 122 -148 150 l-47 22 -1785 0 -1785 0 -63 -34 c-111 -60 -153 -129 -211 -343 -21 -79 -59 -217 -84 -308 -25 -91 -82 -298 -127 -460 -44 -162 -107 -392 -140 -510 -94 -342 -148 -532 -154 -538 -8 -8 -8 -65 -6 1308 1 1227 1 1246 21 1308 21 62 70 139 113 175 11 10 44 30 71 45 l50 27 705 3 c483 2 717 0 742 -8 57 -16 79 -56 83 -147 6 -129 68 -222 174 -258 39 -13 167 -15 981 -15 l937 0 21 23 c30 32 29 81 -3 112 l-24 25 -917 0 c-1004 0 -969 -2 -992 58 -6 15 -12 59 -14 97 -3 49 -11 85 -28 118 -42 84 -143 156 -217 157 -18 0 -33 5 -33 10 0 8 -207 10 -662 9 -592 -2 -672 -4 -746 -20z m4061 -1003 c18 -7 45 -28 60 -45 43 -52 46 -36 -84 -506 -28 -99 -66 -234 -84 -300 -36 -127 -152 -543 -191 -685 -111 -407 -157 -558 -176 -587 -28 -40 -82 -80 -129 -93 -53 -15 -3589 -13 -3589 2 0 6 32 124 71 262 39 138 99 355 134 481 35 127 88 320 119 430 125 453 160 579 207 755 28 102 61 201 74 221 13 20 43 46 67 58 l43 21 1723 0 c1432 0 1728 -2 1755 -14z"/>
  </g>
</svg>