<svg version="1.0" xmlns="http://www.w3.org/2000/svg" width="800.000000" height="800.000000" viewBox="0 0 800.000000 800.000000" preserveAspectRatio="xMidYMid meet">
  <metadata>
    <rdf:RDF xmlns:rdf="http://www.w3.org/1999/02/22-rdf-syntax-ns#" xmlns:rdfs="http://www.w3.org/2000/01/rdf-schema#" xmlns:dc="http://purl.org/dc/elements/1.1/">
      <rdf:Description dc:format="image/svg+xml" dc:Label="1" dc:ContentProducer="001191330110MACRLGPT8B00000" dc:ProduceID="449000071" dc:ReservedCode1="PwrAmhWeQKoPDBCxmXdNWsNTOSgWgNDDFEVSnaRym6Q=" dc:ContentPropagator="001191330110MACRLGPT8B00000" dc:PropagateID="449000071" dc:ReservedCode2="PwrAmhWeQKoPDBCxmXdNWsNTOSgWgNDDFEVSnaRym6Q="/>
    </rdf:RDF>
  </metadata>
  <g transform="translate(0.000000,800.000000) scale(0.100000,-0.100000)" fill="#000000" stroke="none">
    <path d="M3595 6195 c-502 -64 -991 -330 -1315 -715 -326 -387 -485 -846 -467 -1345 20 -522 227 -991 600 -1357 382 -376 889 -582 1432 -581 239 0 430 31 642 104 l56 19 33 -25 c43 -33 76 -32 204 6 244 73 394 45 656 -121 171 -109 193 -120 252 -120 62 0 98 16 140 64 66 76 58 155 -32 308 -137 231 -196 375 -196 473 0 43 27 173 60 297 20 74 20 79 4 113 -17 37 -177 195 -197 195 -14 0 -1027 -1011 -1027 -1024 0 -5 7 -17 16 -27 15 -16 14 -19 -13 -32 -32 -17 -200 -61 -289 -77 -307 -54 -702 -13 -991 101 -468 185 -821 508 -1033 944 -58 118 -130 310 -130 345 0 14 11 19 53 24 118 15 224 92 273 199 l29 62 3 332 c3 309 5 334 21 343 14 7 23 5 34 -8 14 -15 16 -63 19 -332 3 -310 3 -316 27 -364 109 -220 415 -248 551 -51 59 85 60 101 60 753 l0 593 25 24 c37 38 95 35 129 -6 14 -17 26 -43 26 -57 1 -15 2 -292 4 -617 2 -340 8 -603 14 -620 32 -101 101 -181 191 -223 72 -35 198 -38 276 -8 66 26 156 112 187 179 l23 52 5 673 5 674 28 24 c36 31 62 30 92 -1 l25 -24 0 -629 c0 -695 -1 -683 63 -751 103 -108 260 -91 340 39 22 35 22 39 27 645 5 590 6 611 25 645 12 20 38 43 59 54 36 17 43 18 79 5 22 -8 50 -27 61 -42 20 -27 21 -43 26 -370 l5 -342 27 -51 c33 -62 76 -107 132 -137 32 -17 58 -22 122 -22 72 0 85 3 130 30 104 65 144 163 144 353 0 85 2 92 19 92 19 0 20 -11 23 -412 l3 -413 27 -51 c48 -90 132 -143 245 -152 62 -5 63 -5 57 -31 -17 -76 -27 -114 -51 -195 l-27 -89 45 -38 c24 -21 49 -37 54 -35 13 3 51 108 81 226 80 306 86 670 15 970 -78 332 -289 722 -490 903 -49 44 -72 46 -100 11 -31 -39 -26 -64 25 -119 68 -75 174 -219 232 -316 169 -281 254 -606 251 -959 -2 -187 -4 -194 -56 -198 -54 -4 -125 27 -150 64 -16 26 -18 62 -23 444 -4 369 -7 419 -22 447 -25 45 -73 75 -128 81 -60 6 -107 -16 -140 -65 -23 -34 -25 -48 -30 -182 -6 -153 -12 -175 -56 -210 -59 -47 -145 -35 -192 27 l-27 35 -5 346 c-5 339 -5 347 -29 391 -47 90 -113 138 -205 147 -103 11 -198 -41 -251 -138 l-30 -54 -5 -611 c-5 -574 -6 -613 -23 -632 -10 -11 -29 -23 -43 -26 -32 -8 -82 18 -89 47 -3 12 -6 308 -8 657 l-2 635 -25 44 c-14 24 -42 58 -63 75 -72 58 -199 45 -263 -26 -63 -69 -59 -16 -64 -758 l-5 -675 -28 -48 c-44 -75 -128 -115 -214 -102 -57 8 -132 60 -157 110 -20 39 -21 58 -26 670 -5 623 -5 630 -27 671 -76 142 -237 175 -348 73 -84 -78 -79 -34 -85 -740 l-5 -626 -29 -37 c-95 -125 -283 -84 -325 69 -7 25 -11 150 -11 323 0 302 -3 327 -53 380 -91 98 -246 51 -277 -84 -5 -21 -10 -175 -10 -342 0 -331 -1 -338 -60 -405 -33 -38 -104 -67 -161 -67 -34 0 -35 7 -50 179 -26 306 36 646 165 915 190 393 485 691 881 889 479 241 1015 271 1516 87 111 -41 290 -133 392 -202 98 -66 127 -71 160 -26 34 45 19 68 -95 143 -215 140 -481 247 -748 300 -169 33 -450 43 -625 20z m1921 -3028 c-73 -251 -57 -418 61 -621 25 -44 54 -95 64 -113 10 -18 37 -61 59 -96 41 -65 51 -112 28 -135 -26 -26 -67 -12 -177 62 -135 92 -271 159 -375 186 -137 35 -329 22 -484 -34 -48 -17 -60 -15 -84 18 l-17 24 437 436 437 435 38 -37 38 -38 -25 -87z"/>
    <path d="M4337 3609 c-257 -254 -467 -467 -465 -474 4 -16 420 -445 432 -445 12 0 946 941 946 954 0 16 -414 426 -430 426 -8 0 -226 -208 -483 -461z m613 156 l125 -125 -180 -180 -179 -180 -127 123 c-69 67 -127 126 -128 132 -1 12 340 355 354 355 6 0 66 -56 135 -125z m-444 -469 c57 -54 104 -104 104 -110 0 -6 -68 -79 -152 -163 l-152 -152 -128 129 c-70 70 -128 130 -128 133 0 3 69 73 152 156 l153 150 24 -22 c13 -12 70 -66 127 -121z"/>
    <path d="M4827 3132 l-498 -498 47 -43 46 -44 499 499 498 498 -21 26 c-29 33 -59 60 -67 60 -3 0 -230 -224 -504 -498z"/>
  </g>
</svg>