<svg version="1.0" xmlns="http://www.w3.org/2000/svg" width="800.000000" height="800.000000" viewBox="0 0 800.000000 800.000000" preserveAspectRatio="xMidYMid meet">
  <metadata>
    <rdf:RDF xmlns:rdf="http://www.w3.org/1999/02/22-rdf-syntax-ns#" xmlns:rdfs="http://www.w3.org/2000/01/rdf-schema#" xmlns:dc="http://purl.org/dc/elements/1.1/">
      <rdf:Description dc:format="image/svg+xml" dc:Label="1" dc:ContentProducer="001191330110MACRLGPT8B00000" dc:ProduceID="449000872" dc:ReservedCode1="we75U9pByI0bL3cSGVwN0pbWfR3yesOMV/8hFu/u5RU=" dc:ContentPropagator="001191330110MACRLGPT8B00000" dc:PropagateID="449000872" dc:ReservedCode2="we75U9pByI0bL3cSGVwN0pbWfR3yesOMV/8hFu/u5RU="/>
    </rdf:RDF>
  </metadata>
  <g transform="translate(0.000000,800.000000) scale(0.100000,-0.100000)" fill="#000000" stroke="none">
    <path d="M5298 5616 c-31 -17 -59 -34 -63 -37 -3 -4 15 -49 40 -100 l46 -94 -23 -19 c-40 -33 -142 -74 -228 -92 -139 -28 -283 -8 -410 56 -135 68 -314 99 -472 81 -129 -15 -235 -49 -398 -131 -223 -111 -259 -121 -505 -132 -242 -11 -320 -4 -426 42 -83 35 -159 85 -159 105 0 8 23 62 50 121 28 59 50 111 50 115 0 7 -131 79 -144 79 -2 0 -11 -17 -19 -37 -8 -21 -29 -67 -45 -103 -16 -36 -105 -229 -197 -430 -277 -605 -392 -854 -502 -1088 -57 -123 -103 -225 -101 -226 36 -20 149 -69 151 -65 3 2 25 51 51 109 26 58 51 109 56 114 5 5 56 -16 116 -48 59 -31 108 -56 109 -56 1 0 16 32 35 70 21 44 30 74 24 79 -5 5 -53 32 -106 61 -54 28 -98 58 -98 65 0 7 31 79 69 161 146 316 301 653 346 754 26 58 53 117 61 132 l14 26 77 -44 c43 -25 114 -57 158 -71 75 -25 94 -27 298 -31 119 -2 217 -7 217 -12 0 -4 -7 -14 -16 -21 -9 -7 -43 -53 -76 -101 -42 -64 -88 -114 -166 -183 -139 -123 -175 -175 -180 -261 -5 -80 8 -113 66 -165 64 -56 156 -83 287 -82 211 0 374 76 575 268 90 86 135 107 239 113 239 13 395 -79 1056 -626 457 -377 485 -406 485 -491 0 -45 -35 -108 -73 -131 -41 -26 -119 -26 -172 -1 -22 11 -159 117 -305 236 -146 119 -273 221 -283 227 -26 13 -74 0 -92 -25 -16 -22 -20 -84 -7 -103 7 -11 63 -58 395 -327 150 -122 177 -158 177 -238 0 -83 -57 -142 -139 -143 -57 -1 -23 -25 -435 311 -102 84 -195 157 -206 163 -27 14 -86 -4 -100 -30 -18 -34 -12 -90 13 -111 12 -11 123 -102 247 -202 123 -100 235 -197 247 -216 16 -24 23 -49 23 -83 0 -77 -35 -129 -101 -148 -73 -21 -66 -25 -548 368 -51 43 -101 80 -110 83 -31 11 -80 -10 -97 -42 -32 -62 -21 -74 227 -275 126 -102 237 -197 246 -210 9 -14 18 -46 20 -72 10 -115 -104 -181 -212 -124 -22 12 -129 94 -239 184 -198 162 -199 163 -216 221 -30 98 -119 181 -216 201 -29 7 -32 11 -36 54 -6 61 -31 113 -77 158 -50 49 -100 73 -170 80 l-59 7 -16 65 c-33 133 -113 205 -245 221 l-55 6 -11 50 c-17 73 -42 120 -87 161 -66 59 -120 79 -218 79 -78 0 -90 -3 -148 -34 -209 -114 -285 -369 -161 -541 39 -54 109 -97 181 -112 42 -9 58 -17 58 -28 0 -42 36 -115 82 -165 53 -58 128 -95 192 -95 31 0 34 -3 39 -36 20 -119 130 -229 246 -243 24 -4 47 -13 51 -21 4 -8 18 -38 30 -67 29 -66 79 -115 153 -149 53 -24 68 -26 145 -22 115 6 167 29 249 114 58 60 65 65 81 52 249 -212 352 -287 426 -312 185 -61 369 52 401 246 5 35 7 36 39 31 51 -8 139 15 191 49 72 48 110 115 129 229 l6 36 65 6 c117 9 217 79 259 180 8 21 18 67 22 101 l7 63 61 5 c76 6 136 36 199 96 62 61 89 130 88 231 0 110 -35 175 -153 285 -50 47 -95 86 -99 86 -30 0 14 35 198 156 114 76 214 139 223 141 10 2 27 -22 55 -81 22 -47 44 -85 48 -85 19 -2 138 72 135 83 -4 13 -194 388 -328 646 -78 149 -273 529 -457 889 -26 52 -52 96 -58 97 -5 1 -36 -13 -67 -30z m-811 -395 c34 -12 90 -34 125 -50 143 -64 205 -75 381 -68 149 5 213 22 334 87 l72 39 246 -477 c136 -262 247 -481 248 -487 2 -8 -479 -335 -493 -335 -3 0 -115 91 -250 201 -464 382 -602 474 -803 540 -164 54 -325 49 -454 -12 -40 -19 -94 -60 -155 -117 -116 -109 -166 -144 -265 -183 -90 -37 -218 -49 -292 -29 -42 11 -91 49 -91 70 0 11 46 59 185 190 59 56 114 122 160 190 39 58 97 133 130 168 53 58 77 73 235 152 264 132 333 152 510 146 82 -3 133 -10 177 -25z m-1696 -1594 c46 -30 71 -82 63 -127 -9 -51 -28 -83 -83 -138 -84 -84 -180 -92 -235 -19 -34 47 -39 82 -20 143 18 57 78 127 130 150 47 20 107 17 145 -9z m320 -290 c22 -14 39 -38 48 -64 13 -37 13 -45 -3 -87 -26 -67 -119 -161 -175 -176 -72 -19 -140 12 -167 76 -23 54 -17 70 36 112 27 21 72 67 100 101 47 55 56 61 89 61 23 0 52 -9 72 -23z m327 -293 c50 -33 60 -99 25 -168 -20 -39 -101 -124 -135 -142 -87 -45 -209 16 -208 105 1 31 8 41 51 75 27 22 68 63 90 92 22 29 48 55 57 58 27 8 95 -4 120 -20z m242 -284 c48 -25 76 -103 58 -166 -18 -68 -101 -133 -170 -134 -40 0 -105 28 -121 53 -32 50 -28 62 39 121 35 31 78 77 95 101 33 46 49 50 99 25z"/>
  </g>
</svg>